<svg xmlns="http://www.w3.org/2000/svg" xmlns:xlink="http://www.w3.org/1999/xlink" width="500" zoomAndPan="magnify" viewBox="0 0 375 374.999991" height="500" preserveAspectRatio="xMidYMid meet" version="1.0"><defs><clipPath id="83be59ddd3"><path d="M 170.425781 0 L 374.902344 0 L 374.902344 98 L 170.425781 98 Z M 170.425781 0 " clip-rule="nonzero"/></clipPath><clipPath id="dd39237b76"><path d="M 0.0898438 213.148438 L 173 213.148438 L 173 375 L 0.0898438 375 Z M 0.0898438 213.148438 " clip-rule="nonzero"/></clipPath></defs><g clip-path="url(#83be59ddd3)"><path fill="#e3b3a2" d="M 175.328125 67.054688 C 176.472656 67.148438 177.476562 67.269531 178.761719 67.539062 C 180.316406 67.832031 182.9375 68.566406 185.046875 69.644531 C 185.402344 69.824219 185.75 70.023438 186.09375 70.214844 L 186.09375 31.792969 L 322.226562 31.792969 L 322.226562 97.984375 C 327.246094 95.613281 332.511719 94.046875 337.699219 93.386719 C 337.75 93.378906 337.800781 93.371094 337.851562 93.363281 L 337.851562 93.230469 C 361.9375 68.152344 391.492188 29.8125 363.589844 30.195312 C 358.148438 30.269531 348.945312 35.015625 337.851562 42.382812 L 337.851562 19.304688 C 337.851562 8.644531 329.199219 0 318.535156 0 L 189.785156 0 C 179.121094 0 170.472656 8.644531 170.472656 19.304688 L 170.472656 67.207031 C 170.925781 67.148438 171.378906 67.085938 171.824219 67.054688 C 173.023438 66.96875 174.199219 66.976562 175.328125 67.054688 " fill-opacity="1" fill-rule="nonzero"/></g><path fill="#e3b3a2" d="M 334.332031 242.019531 C 331.703125 242.757812 328.769531 243.097656 325.652344 242.949219 C 324.542969 242.898438 323.390625 242.757812 322.226562 242.523438 L 322.226562 249.890625 L 216.355469 249.890625 C 216.21875 250.429688 216.078125 250.976562 215.933594 251.515625 C 215.382812 253.621094 214.714844 255.699219 214.011719 257.757812 C 214.347656 255.144531 214.617188 252.519531 214.8125 249.890625 C 215.304688 243.28125 215.363281 236.652344 215.058594 230.167969 C 213.714844 201.554688 205.242188 175.8125 195.261719 167.664062 C 194.019531 166.652344 192.757812 165.910156 191.480469 165.46875 C 191.921875 163.488281 192.359375 161.394531 192.78125 159.214844 C 193.136719 157.386719 193.484375 155.492188 193.816406 153.546875 C 196.675781 136.78125 198.328125 116.324219 194.320312 100.515625 C 192.65625 93.960938 190.023438 88.207031 186.097656 83.847656 C 185.84375 83.570312 185.585938 83.296875 185.324219 83.035156 C 183.242188 80.90625 180.820312 79.152344 178.015625 77.847656 C 175.179688 76.527344 172.683594 75.964844 170.476562 76.03125 C 162.703125 76.261719 158.515625 84.359375 155.75 95.414062 C 151.765625 111.324219 150.714844 133.332031 146.113281 146.726562 C 137.871094 170.707031 118.582031 177.242188 98.050781 219.265625 C 98.726562 220.417969 99.40625 221.566406 100.082031 222.71875 L 107.199219 234.863281 L 110.695312 240.828125 C 114.222656 246.871094 117.800781 252.882812 121.285156 258.953125 L 137.023438 286.222656 L 142.222656 295.34375 L 149.816406 308.710938 L 152.59375 313.597656 L 155.226562 318.292969 L 158.390625 325.671875 L 261.433594 296.398438 L 203.503906 293.503906 C 203.511719 293.496094 203.515625 293.488281 203.519531 293.480469 C 203.523438 293.472656 203.527344 293.464844 203.53125 293.457031 L 270.578125 293.800781 L 271.808594 293.453125 L 318.535156 293.453125 C 329.203125 293.453125 337.851562 284.808594 337.851562 274.144531 L 337.851562 240.835938 C 337.339844 241.046875 336.804688 241.226562 336.269531 241.421875 C 335.636719 241.640625 335.011719 241.867188 334.332031 242.019531 " fill-opacity="1" fill-rule="nonzero"/><g clip-path="url(#dd39237b76)"><path fill="#e3b3a2" d="M 113.507812 360.347656 C 106.792969 363.351562 98.914062 360.34375 95.910156 353.632812 C 92.902344 346.921875 95.910156 339.042969 102.625 336.042969 C 109.339844 333.035156 117.21875 336.042969 120.222656 342.753906 C 123.230469 349.464844 120.222656 357.34375 113.507812 360.347656 Z M 161.574219 333.386719 L 161.25 332.902344 L 153.636719 321.425781 L 149.640625 315.402344 L 145.65625 309.3125 L 138.140625 297.835938 L 132.40625 289.039062 L 126.71875 280.21875 L 115.339844 262.578125 C 111.542969 256.722656 107.839844 250.808594 104.085938 244.925781 C 104.078125 244.910156 104.066406 244.894531 104.054688 244.878906 L 94.820312 230.339844 L 92.800781 227.160156 C 90.332031 223.289062 87.878906 219.40625 85.433594 215.523438 C 84.972656 214.792969 84.515625 214.0625 84.058594 213.335938 L 64.890625 225.324219 L 41.839844 239.632812 L 18.746094 253.867188 L 0.0898438 265.292969 C 6.449219 275.753906 12.832031 286.195312 19.136719 296.6875 L 29.972656 314.660156 L 40.746094 332.667969 L 51.480469 350.703125 C 55.050781 356.71875 58.632812 362.726562 62.160156 368.773438 L 81.632812 402 L 102.007812 390.246094 C 105.929688 387.996094 109.832031 385.707031 113.769531 383.488281 L 137.375 370.082031 L 149.21875 363.453125 C 153.171875 361.25 157.109375 359.027344 161.082031 356.851562 L 172.988281 350.324219 L 167.097656 341.625 L 161.574219 333.386719 " fill-opacity="1" fill-rule="nonzero"/></g><path fill="#e3b3a2" d="M 337.851562 102.199219 C 333.214844 102.921875 328.347656 104.714844 323.734375 107.605469 C 323.21875 107.933594 322.71875 108.265625 322.226562 108.609375 C 321.570312 109.058594 320.9375 109.523438 320.320312 110.003906 C 319.792969 110.414062 319.285156 110.835938 318.785156 111.265625 C 317.792969 112.128906 316.859375 113.019531 315.992188 113.941406 C 312.667969 117.472656 310.300781 121.394531 309.0625 125.285156 C 307.492188 130.242188 307.761719 135.144531 310.25 139.109375 C 311.96875 141.847656 314.554688 143.820312 317.6875 145.023438 C 319.097656 145.570312 320.617188 145.960938 322.226562 146.1875 C 325.550781 146.660156 329.226562 146.453125 332.996094 145.550781 C 334.601562 145.167969 336.230469 144.65625 337.851562 144.015625 C 340.089844 143.136719 342.320312 142.023438 344.492188 140.660156 C 348.007812 138.453125 351.015625 135.828125 353.425781 132.996094 C 359.300781 126.09375 361.632812 117.949219 359.15625 111.527344 C 358.835938 110.710938 358.453125 109.917969 357.976562 109.160156 C 354.25 103.226562 346.460938 100.859375 337.851562 102.199219 " fill-opacity="1" fill-rule="nonzero"/><path fill="#e3b3a2" d="M 361 150.613281 C 357.128906 147.867188 351.402344 147.058594 345.113281 148.171875 C 344.820312 148.226562 344.53125 148.277344 344.238281 148.335938 C 342.148438 148.761719 340.003906 149.402344 337.847656 150.246094 C 335.820312 151.042969 333.78125 152.023438 331.769531 153.191406 C 331.320312 153.453125 330.878906 153.71875 330.4375 153.996094 C 327.300781 155.960938 324.546875 158.21875 322.226562 160.621094 C 320.742188 162.152344 319.4375 163.742188 318.328125 165.363281 C 313.753906 172.046875 312.488281 179.183594 315.722656 184.335938 C 317.195312 186.6875 319.449219 188.371094 322.226562 189.398438 C 326.503906 190.980469 332.027344 190.984375 337.847656 189.414062 C 338.5 189.238281 339.15625 189.039062 339.8125 188.824219 C 343.019531 187.777344 346.28125 186.261719 349.449219 184.277344 C 362.828125 175.882812 369.417969 162.296875 364.167969 153.9375 C 363.339844 152.621094 362.269531 151.515625 361 150.613281 " fill-opacity="1" fill-rule="nonzero"/><path fill="#e3b3a2" d="M 358.460938 200.070312 C 358.460938 200.070312 358.203125 199.710938 357.738281 199.0625 C 357.59375 198.871094 357.441406 198.6875 357.28125 198.511719 C 353.578125 194.332031 347.054688 192.875 340.015625 194.25 C 339.296875 194.386719 338.578125 194.558594 337.851562 194.757812 C 334.855469 195.578125 331.808594 196.898438 328.886719 198.730469 C 326.34375 200.328125 324.109375 202.179688 322.226562 204.175781 C 322.136719 204.269531 322.046875 204.363281 321.960938 204.460938 C 315.625 211.34375 313.449219 219.902344 317.238281 225.9375 C 317.847656 226.910156 318.585938 227.769531 319.429688 228.519531 C 320.261719 229.257812 321.199219 229.886719 322.226562 230.410156 C 326.410156 232.546875 332.035156 232.847656 337.851562 231.253906 C 340.847656 230.433594 343.890625 229.113281 346.8125 227.277344 C 357.683594 220.457031 362.921875 209.039062 359.058594 201.160156 C 358.878906 200.792969 358.679688 200.425781 358.460938 200.070312 " fill-opacity="1" fill-rule="nonzero"/><path fill="#e3b3a2" d="M 234.636719 109.40625 L 269.5625 109.40625 C 272.277344 105.570312 275 101.949219 277.816406 98.445312 C 277.996094 98.222656 278.183594 98 278.367188 97.777344 L 218.050781 97.777344 C 214.835938 97.777344 212.234375 100.378906 212.234375 103.59375 L 212.234375 172.644531 C 212.234375 175.851562 214.835938 178.457031 218.050781 178.457031 L 287.125 178.457031 C 290.335938 178.457031 292.941406 175.851562 292.941406 172.644531 L 292.941406 122.15625 C 292.085938 124.109375 291.195312 126.085938 290.25 128.105469 C 287.5 133.984375 284.511719 139.84375 281.308594 145.640625 L 281.308594 166.828125 L 223.863281 166.828125 L 223.863281 109.40625 L 234.636719 109.40625 " fill-opacity="1" fill-rule="nonzero"/><path fill="#e3b3a2" d="M 288.246094 97.890625 C 286.695312 99.679688 285.203125 101.472656 283.765625 103.226562 C 282.148438 105.238281 280.5625 107.292969 278.988281 109.40625 C 276.785156 112.367188 274.605469 115.449219 272.414062 118.707031 C 267.578125 125.90625 262.734375 134.070312 257.597656 143.667969 L 257.375 144.085938 L 257.027344 143.761719 C 253.488281 140.46875 250.46875 137.792969 247.53125 135.339844 C 244.980469 133.179688 242.136719 130.957031 238.582031 128.34375 C 237.542969 127.558594 236.472656 126.792969 235.394531 126.042969 C 234.1875 125.203125 232.953125 124.382812 231.703125 123.585938 C 231.226562 123.28125 230.753906 122.976562 230.269531 122.679688 C 230.246094 122.753906 230.226562 122.824219 230.199219 122.898438 C 230.589844 123.71875 230.992188 124.539062 231.40625 125.359375 C 231.867188 126.269531 232.339844 127.175781 232.828125 128.070312 C 233.480469 129.285156 234.15625 130.488281 234.851562 131.671875 C 237.027344 135.449219 238.925781 138.515625 240.824219 141.335938 C 244.796875 147.339844 249.265625 153.445312 254.117188 159.480469 C 254.542969 160.011719 255.082031 160.492188 255.667969 160.867188 C 256.703125 161.527344 257.894531 161.875 259.113281 161.875 C 261.316406 161.875 263.339844 160.769531 264.523438 158.910156 L 264.929688 158.28125 C 270.988281 148.78125 276.484375 138.984375 281.308594 129.109375 C 281.996094 127.699219 282.675781 126.285156 283.335938 124.875 C 286.234375 118.683594 288.65625 112.894531 290.75 107.167969 C 291.378906 105.402344 292.015625 103.589844 292.632812 101.738281 C 293.929688 97.851562 295.148438 93.789062 296.089844 89.589844 C 293.285156 92.257812 290.6875 95.074219 288.246094 97.890625 " fill-opacity="1" fill-rule="nonzero"/></svg>